<svg width="322" height="41" viewBox="0 0 322 41" fill="none" xmlns="http://www.w3.org/2000/svg">
<path d="M36.5861 32.2762H30.1503L34.1757 7.38601H40.6111L36.5861 32.2762Z" fill="#151515"/>
<path d="M59.9165 7.9945C58.6471 7.49088 56.6337 6.93483 54.1441 6.93483C47.7885 6.93483 43.313 10.3239 43.2855 15.1694C43.2327 18.7443 46.4899 20.7299 48.926 21.9219C51.4159 23.14 52.2623 23.935 52.2623 25.0207C52.237 26.6882 50.2503 27.4568 48.3974 27.4568C45.8279 27.4568 44.4511 27.0605 42.3589 26.1328L41.5114 25.7351L40.6108 31.3224C42.1203 32.0101 44.9013 32.6203 47.7885 32.6471C54.5414 32.6471 58.9378 29.3104 58.9899 24.1468C59.0156 21.3134 57.2957 19.1423 53.5877 17.3683C51.3367 16.2294 49.9582 15.4615 49.9582 14.2962C49.9846 13.2369 51.1241 12.1519 53.6651 12.1519C55.7574 12.0988 57.2946 12.6017 58.4591 13.1049L59.0412 13.3692L59.9165 7.9945Z" fill="#151515"/>
<path fill-rule="evenodd" clip-rule="evenodd" d="M71.4363 7.38601H76.4144L81.6065 32.2758H75.6475C75.6475 32.2758 75.0644 29.416 74.8796 28.5421H66.6166C66.3776 29.2038 65.2658 32.2758 65.2658 32.2758H58.5129L68.0725 9.45116C68.7348 7.83578 69.9012 7.38601 71.4363 7.38601ZM71.0397 16.4944C71.0397 16.4944 69.0002 22.0286 68.4702 23.4585H73.8196C73.5549 22.214 72.3362 16.2561 72.3362 16.2561L71.8864 14.1115C71.697 14.6637 71.4231 15.423 71.2383 15.9352C71.1131 16.2823 71.0289 16.5159 71.0397 16.4944Z" fill="#151515"/>
<path d="M24.7749 7.38601L18.4722 24.3587L17.7834 20.9164C16.6182 16.9445 12.9637 12.6291 8.8855 10.4834L14.6586 32.2498H21.4643L31.5803 7.38601H24.7749V7.38601Z" fill="#151515"/>
<path d="M12.6195 7.38601H2.26487L2.15894 7.88892C10.2362 9.95442 15.5856 14.9332 17.7834 20.9175L15.5324 9.47825C15.1618 7.88857 14.023 7.43845 12.6195 7.38601Z" fill="#151515"/>
<path opacity="0.01" fill-rule="evenodd" clip-rule="evenodd" d="M0 0.617065H86V40.6171H0V0.617065Z" fill="white"/>
<circle cx="155" cy="19.6171" r="17" fill="#393939"/>
<circle cx="133" cy="19.6171" r="17" fill="#151515"/>
<path fill-rule="evenodd" clip-rule="evenodd" d="M144 32.5409C147.671 29.4227 150 24.7728 150 19.579C150 14.3852 147.671 9.73534 144 6.61707C140.329 9.73534 138 14.3852 138 19.579C138 24.7728 140.329 29.4227 144 32.5409Z" fill="#636363"/>
<rect opacity="0.01" x="114" y="0.617065" width="60" height="40" fill="white"/>
<path fill-rule="evenodd" clip-rule="evenodd" d="M247.739 12.7129H241.562C241.139 12.7127 240.78 13.02 240.714 13.4373L238.215 29.2772C238.192 29.4259 238.235 29.5774 238.333 29.6917C238.431 29.806 238.574 29.8717 238.725 29.8715H241.674C242.097 29.8717 242.457 29.5639 242.522 29.1462L243.196 24.874C243.261 24.4566 243.621 24.1489 244.043 24.1487H245.999C250.068 24.1487 252.416 22.1796 253.029 18.2777C253.306 16.5706 253.041 15.2293 252.242 14.29C251.364 13.2585 249.807 12.7129 247.739 12.7129ZM248.452 18.4981C248.114 20.7146 246.42 20.7146 244.783 20.7146H243.851L244.505 16.5751C244.544 16.3249 244.76 16.1407 245.013 16.1407H245.44C246.556 16.1407 247.608 16.1407 248.152 16.7765C248.476 17.1559 248.575 17.7195 248.452 18.4981ZM263.246 18.4267H266.204C266.354 18.4267 266.497 18.4926 266.594 18.6069C266.692 18.7213 266.734 18.8727 266.71 19.0211L265.112 29.1453C265.046 29.563 264.686 29.8708 264.264 29.8706H261.599C261.448 29.8704 261.305 29.8042 261.208 29.6896C261.11 29.5749 261.068 29.4232 261.091 29.2745L261.223 28.4525C261.223 28.4525 259.763 30.1461 257.129 30.1461C255.594 30.1461 254.305 29.7035 253.403 28.6413C252.42 27.4861 252.019 25.8296 252.301 24.0972C252.845 20.6243 255.637 18.1485 258.906 18.1485C260.331 18.1485 261.759 18.4593 262.399 19.3887L262.606 19.6885L262.737 18.8612C262.777 18.611 262.992 18.4267 263.246 18.4267ZM262.08 24.1839C261.795 25.8738 260.454 27.0083 258.743 27.0083C257.884 27.0083 257.198 26.7328 256.757 26.2107C256.32 25.6923 256.153 24.9544 256.293 24.1324C256.559 22.4569 257.923 21.2855 259.607 21.2855C260.447 21.2855 261.13 21.5645 261.58 22.0911C262.031 22.6231 262.21 23.3656 262.08 24.1839ZM278.985 18.4267H281.958C282.149 18.4268 282.325 18.5333 282.414 18.703C282.502 18.8728 282.49 19.0778 282.38 19.2351L272.494 33.5061C272.333 33.7373 272.07 33.875 271.788 33.8746H268.819C268.627 33.8747 268.45 33.7672 268.362 33.5961C268.273 33.425 268.288 33.2188 268.399 33.0617L271.478 28.7163L268.203 19.1078C268.15 18.9503 268.175 18.7766 268.272 18.6414C268.369 18.5063 268.526 18.4263 268.692 18.4267H271.613C271.993 18.4269 272.327 18.6757 272.437 19.0391L274.175 24.8424L278.274 18.8034C278.435 18.5682 278.701 18.4272 278.985 18.4267Z" fill="#151515"/>
<path fill-rule="evenodd" clip-rule="evenodd" d="M311.215 29.2772L313.75 13.1474C313.79 12.8974 314.005 12.7129 314.258 12.712H317.112C317.263 12.7123 317.405 12.7783 317.503 12.8928C317.601 13.0073 317.643 13.1587 317.62 13.3073L315.12 29.1462C315.055 29.5644 314.695 29.8715 314.271 29.8715H311.723C311.572 29.8715 311.429 29.8057 311.332 29.6914C311.234 29.577 311.191 29.4257 311.215 29.2772ZM291.799 12.7129H285.621C285.199 12.7131 284.84 13.0203 284.774 13.4373L282.276 29.2772C282.252 29.4257 282.295 29.577 282.392 29.6914C282.49 29.8057 282.633 29.8715 282.783 29.8715H285.954C286.249 29.8711 286.5 29.6558 286.546 29.3639L287.255 24.874C287.32 24.4566 287.68 24.1489 288.102 24.1487H290.057C294.127 24.1487 296.474 22.1796 297.089 18.2777C297.366 16.5706 297.099 15.2293 296.3 14.29C295.423 13.2585 293.867 12.7129 291.799 12.7129ZM292.512 18.4981C292.175 20.7146 290.481 20.7146 288.843 20.7146H287.912L288.567 16.5751C288.605 16.3249 288.821 16.1404 289.074 16.1407H289.501C290.616 16.1407 291.669 16.1407 292.213 16.7766C292.537 17.1559 292.636 17.7195 292.512 18.4981ZM307.307 18.4267H310.263C310.414 18.4266 310.557 18.4922 310.655 18.6065C310.753 18.7208 310.796 18.8722 310.773 19.0211L309.174 29.1453C309.108 29.5627 308.749 29.8704 308.326 29.8706H305.663C305.512 29.8709 305.368 29.805 305.27 29.6902C305.172 29.5755 305.13 29.4235 305.153 29.2745L305.285 28.4526C305.285 28.4526 303.825 30.1461 301.191 30.1461C299.656 30.1461 298.368 29.7035 297.465 28.6413C296.482 27.4861 296.082 25.8296 296.364 24.0972C296.908 20.6243 299.699 18.1486 302.968 18.1486C304.393 18.1486 305.82 18.4593 306.46 19.3887L306.668 19.6886L306.799 18.8612C306.838 18.6107 307.053 18.426 307.307 18.4267ZM306.14 24.1839C305.856 25.8738 304.513 27.0083 302.802 27.0083C301.945 27.0083 301.257 26.7328 300.816 26.2107C300.379 25.6923 300.215 24.9544 300.352 24.1324C300.62 22.4569 301.982 21.2855 303.667 21.2855C304.507 21.2855 305.19 21.5646 305.639 22.0911C306.092 22.6231 306.271 23.3656 306.14 24.1839Z" fill="#151515"/>
<path d="M212.563 32.9497L213.035 29.9492L211.983 29.9248H206.958L210.45 7.78403C210.472 7.64421 210.592 7.54122 210.734 7.54197H219.206C222.019 7.54197 223.96 8.12726 224.973 9.28248C225.448 9.82442 225.751 10.3907 225.897 11.014C226.051 11.6679 226.053 12.4492 225.904 13.4021L225.893 13.4716V14.0822L226.368 14.3514C226.73 14.5351 227.057 14.7837 227.33 15.0848C227.736 15.5482 227.999 16.1371 228.11 16.8353C228.225 17.5533 228.187 18.4078 227.999 19.3751C227.782 20.4879 227.432 21.4571 226.959 22.2501C226.541 22.9605 225.979 23.5758 225.31 24.0565C224.681 24.5027 223.935 24.8414 223.09 25.0582C222.272 25.2714 221.339 25.3789 220.315 25.3789H219.656C219.184 25.3789 218.727 25.5487 218.367 25.8531C218.008 26.1607 217.77 26.5858 217.695 27.0525L217.645 27.3226L216.811 32.611L216.773 32.8052C216.763 32.8666 216.746 32.8973 216.72 32.9181C216.696 32.9381 216.665 32.9493 216.634 32.9497H212.563Z" fill="#253B80"/>
<path d="M226.818 13.5421C226.792 13.7038 226.763 13.8691 226.731 14.0389C225.614 19.7753 221.791 21.7569 216.909 21.7569H214.423C213.826 21.7569 213.323 22.1905 213.23 22.7794L211.958 30.8506L211.597 33.1385C211.568 33.3221 211.621 33.5093 211.742 33.6507C211.863 33.7921 212.039 33.8736 212.225 33.8737H216.634C217.156 33.8737 217.599 33.4944 217.681 32.9795L217.725 32.7555L218.555 27.4879L218.608 27.1989C218.689 26.6822 219.134 26.3029 219.656 26.3029H220.315C224.587 26.3029 227.93 24.5687 228.908 19.5504C229.316 17.454 229.105 15.7035 228.024 14.4724C227.682 14.0916 227.273 13.7763 226.818 13.5421V13.5421Z" fill="#636363"/>
<path d="M225.649 13.076C225.292 12.9728 224.929 12.8923 224.562 12.8349C223.837 12.7235 223.104 12.67 222.371 12.675H215.73C215.208 12.6746 214.764 13.055 214.684 13.571L213.271 22.5184L213.23 22.7794C213.321 22.1908 213.828 21.7566 214.424 21.7569H216.909C221.791 21.7569 225.614 19.7744 226.731 14.0389C226.764 13.8691 226.792 13.7038 226.818 13.5421C226.523 13.3875 226.215 13.2579 225.899 13.1546C225.816 13.1271 225.733 13.1009 225.649 13.076Z" fill="#393939"/>
<path d="M214.684 13.571C214.763 13.0548 215.208 12.6743 215.73 12.6759H222.371C223.158 12.6759 223.892 12.7274 224.562 12.8358C225.016 12.9071 225.463 13.0137 225.9 13.1546C226.23 13.2639 226.536 13.3931 226.818 13.5421C227.151 11.4222 226.816 9.97887 225.67 8.6719C224.406 7.23307 222.125 6.61707 219.207 6.61707H210.735C210.139 6.61707 209.63 7.05061 209.538 7.64042L206.009 30.0088C205.976 30.219 206.036 30.4332 206.174 30.5951C206.312 30.757 206.514 30.8503 206.727 30.8506H211.958L213.271 22.5184L214.684 13.571Z" fill="#151515"/>
<rect opacity="0.01" x="202" y="0.617065" width="120" height="40" fill="white"/>
</svg>
